<?xml version="1.0" ?><!DOCTYPE svg  PUBLIC '-//W3C//DTD SVG 1.1//EN'  'http://www.w3.org/Graphics/SVG/1.1/DTD/svg11.dtd'><svg height="100%" style="fill-rule:evenodd;clip-rule:evenodd;stroke-linejoin:round;stroke-miterlimit:2;" version="1.1" viewBox="0 0 512 512" width="100%" xml:space="preserve" xmlns="http://www.w3.org/2000/svg" xmlns:serif="http://www.serif.com/" xmlns:xlink="http://www.w3.org/1999/xlink"><g transform="matrix(1.04839,0,0,1.06716,-11.3548,-15.2836)"><ellipse cx="255.015" cy="254.21" rx="244.185" ry="239.888" style="fill:rgb(137,216,255);"/><path d="M255.015,14.322C389.785,14.322 499.2,121.812 499.2,254.21C499.2,386.608 389.785,494.098 255.015,494.098C120.246,494.098 10.831,386.608 10.831,254.21C10.831,121.812 120.246,14.322 255.015,14.322ZM255.015,21.818C385.573,21.818 491.569,125.949 491.569,254.21C491.569,382.47 385.573,486.601 255.015,486.601C124.458,486.601 18.462,382.47 18.462,254.21C18.462,125.949 124.458,21.818 255.015,21.818Z" style="fill:white;"/></g><g transform="matrix(1,0,0,1,-0.660764,0.428955)"><path d="M265.226,169.251L265.226,91.162L319.423,91.162C319.545,91.586 319.664,91.617 319.775,91.162L319.937,92.426L320.107,93.669L320.284,94.894L320.47,96.104L320.664,97.299L320.867,98.483L321.078,99.657L321.299,100.822L321.529,101.98L321.769,103.133L321.878,103.64C331.481,147.885 360.63,167.574 400.243,169.266L400.243,225.406C371.5,226.294 345.414,218.19 321.878,201.457L321.878,316.083C321.878,373.425 275.098,419.981 217.478,419.981C159.859,419.981 113.079,373.425 113.079,316.083C113.079,258.74 159.859,212.185 217.478,212.185C222.222,212.185 226.892,212.5 231.467,213.112L231.467,269.693C227.041,268.345 222.344,267.62 217.478,267.62C191.09,267.62 169.666,288.941 169.666,315.203C169.666,341.464 191.09,362.786 217.478,362.786C243.571,362.786 264.81,341.939 265.282,316.083L265.3,316.083L265.3,169.251L265.226,169.251Z" style="fill:white;"/></g></svg>